<svg width="42" height="30" viewBox="0 0 42 30" fill="none" xmlns="http://www.w3.org/2000/svg">
<path d="M2 13C0.895431 13 9.65645e-08 13.8954 0 15C-9.65645e-08 16.1046 0.89543 17 2 17L2 13ZM41.4142 16.4142C42.1953 15.6332 42.1953 14.3668 41.4142 13.5858L28.6863 0.857867C27.9052 0.0768179 26.6389 0.0768178 25.8579 0.857866C25.0768 1.63892 25.0768 2.90524 25.8579 3.68629L37.1716 15L25.8579 26.3137C25.0768 27.0948 25.0768 28.3611 25.8579 29.1421C26.6389 29.9232 27.9052 29.9232 28.6863 29.1421L41.4142 16.4142ZM2 17L40 17L40 13L2 13L2 17Z" fill="#FF6947"/>
</svg>
