<svg width="23" height="20" viewBox="0 0 23 20" fill="none" xmlns="http://www.w3.org/2000/svg">
<path d="M21 11.25C21.6904 11.25 22.25 10.6904 22.25 10C22.25 9.30964 21.6904 8.75 21 8.75V11.25ZM1.11612 9.11612C0.627962 9.60427 0.627962 10.3957 1.11612 10.8839L9.07107 18.8388C9.55922 19.327 10.3507 19.327 10.8388 18.8388C11.327 18.3507 11.327 17.5592 10.8388 17.0711L3.76777 10L10.8388 2.92893C11.327 2.44078 11.327 1.64932 10.8388 1.16117C10.3507 0.67301 9.55922 0.67301 9.07107 1.16117L1.11612 9.11612ZM21 8.75L2 8.75V11.25L21 11.25V8.75Z" fill="#F58116"/>
</svg>
