<svg width="23" height="20" viewBox="0 0 23 20" fill="none" xmlns="http://www.w3.org/2000/svg">
<path d="M2 8.75C1.30964 8.75 0.75 9.30964 0.75 10C0.75 10.6904 1.30964 11.25 2 11.25L2 8.75ZM21.8839 10.8839C22.372 10.3957 22.372 9.60427 21.8839 9.11612L13.9289 1.16117C13.4408 0.673011 12.6493 0.673011 12.1612 1.16117C11.673 1.64932 11.673 2.44078 12.1612 2.92893L19.2322 10L12.1612 17.0711C11.673 17.5592 11.673 18.3507 12.1612 18.8388C12.6493 19.327 13.4408 19.327 13.9289 18.8388L21.8839 10.8839ZM2 11.25L21 11.25L21 8.75L2 8.75L2 11.25Z" fill="#F58116"/>
</svg>
