<svg width="244" height="184" viewBox="0 0 244 184" fill="none" xmlns="http://www.w3.org/2000/svg">
<path d="M241.645 36.6469C242.697 36.3117 243.279 35.1867 242.943 34.1342L237.48 16.9834C237.145 15.931 236.02 15.3496 234.967 15.6848C233.915 16.0201 233.333 17.1451 233.669 18.1975L238.525 33.4427L223.28 38.2991C222.227 38.6344 221.646 39.7594 221.981 40.8118C222.317 41.8643 223.442 42.4457 224.494 42.1104L241.645 36.6469ZM77.9485 115.779L75.9736 116.095L77.9485 115.779ZM114.576 101.605L113.345 103.182L114.576 101.605ZM157.411 153.376L159.254 152.6L157.411 153.376ZM4.22446 179.332C4.12656 177.314 4.05387 175.26 4.00846 173.178L0.00941178 173.265C0.0556024 175.383 0.129536 177.473 0.229155 179.526L4.22446 179.332ZM4.06523 160.852C4.19235 156.781 4.43 152.664 4.79155 148.551L0.80691 148.201C0.438403 152.393 0.196518 156.586 0.0671789 160.727L4.06523 160.852ZM6.25239 136.331C6.87994 132.235 7.64689 128.198 8.56642 124.271L4.67175 123.359C3.72626 127.397 2.94025 131.537 2.29853 135.725L6.25239 136.331ZM11.9203 112.504C13.2779 108.541 14.829 104.779 16.5884 101.28L13.0148 99.4831C11.1632 103.165 9.54424 107.098 8.13622 111.208L11.9203 112.504ZM22.9325 91.0776C25.4479 87.8279 28.2432 85.0122 31.3386 82.7092L28.9509 79.5C25.5271 82.0474 22.4777 85.1303 19.7694 88.6291L22.9325 91.0776ZM41.7476 77.3489C45.284 76.228 49.1446 75.6248 53.3615 75.6304L53.3668 71.6304C48.7593 71.6243 44.4877 72.2843 40.5391 73.5358L41.7476 77.3489ZM65.2078 77.0911C68.827 77.9373 72.6603 79.1666 76.7179 80.819L78.2265 77.1143C73.9967 75.3919 69.9634 74.0951 66.1184 73.1962L65.2078 77.0911ZM87.7733 86.0906C91.142 87.9173 94.6411 90.004 98.2744 92.3669L100.455 89.0136C96.7406 86.598 93.1502 84.456 89.68 82.5743L87.7733 86.0906ZM108.348 99.3802C109.989 100.595 111.655 101.862 113.345 103.182L115.807 100.029C114.09 98.6885 112.397 97.4011 110.727 96.1651L108.348 99.3802ZM113.345 103.182C114.816 104.33 116.276 105.499 117.72 106.689L120.264 103.602C118.791 102.389 117.304 101.198 115.807 100.029L113.345 103.182ZM126.151 114.061C128.885 116.604 131.532 119.233 134.067 121.952L136.993 119.224C134.388 116.43 131.673 113.734 128.876 111.132L126.151 114.061ZM141.334 130.409C143.636 133.333 145.798 136.351 147.793 139.464L151.161 137.306C149.091 134.076 146.853 130.953 144.477 127.935L141.334 130.409ZM153.262 149.116C154.08 150.77 154.849 152.449 155.568 154.153L159.254 152.6C158.503 150.82 157.7 149.068 156.848 147.344L153.262 149.116ZM155.568 154.153C156.496 156.356 157.287 158.491 157.913 160.527L161.736 159.352C161.064 157.165 160.225 154.903 159.254 152.6L155.568 154.153ZM159.15 173.193C158.688 174.984 157.825 176.376 156.516 177.401C155.188 178.441 153.257 179.215 150.484 179.495L150.884 183.475C154.194 183.141 156.907 182.175 158.982 180.55C161.076 178.911 162.372 176.714 163.023 174.193L159.15 173.193ZM137.306 178.122C135.265 177.636 133.063 177.025 130.693 176.278L129.491 180.093C131.94 180.865 134.234 181.503 136.38 182.013L137.306 178.122ZM130.693 176.278C128.474 175.579 126.307 174.773 124.196 173.867L122.618 177.543C124.851 178.501 127.143 179.354 129.491 180.093L130.693 176.278ZM112.075 167.174C108.257 164.548 104.704 161.559 101.452 158.265L98.6054 161.075C102.031 164.545 105.777 167.697 109.808 170.47L112.075 167.174ZM92.6412 147.538C90.0427 143.719 87.7751 139.656 85.872 135.406L82.2213 137.041C84.22 141.504 86.6024 145.773 89.3341 149.788L92.6412 147.538ZM81.3217 122.276C80.7582 120.034 80.2908 117.761 79.9234 115.463L75.9736 116.095C76.3596 118.508 76.8506 120.896 77.4424 123.251L81.3217 122.276ZM79.9234 115.463C79.586 113.353 79.274 111.238 78.9895 109.123L75.0252 109.656C75.3143 111.805 75.6311 113.953 75.9736 116.095L79.9234 115.463ZM77.623 96.3857C77.2842 92.089 77.0771 87.8205 77.0187 83.6101L73.0191 83.6656C73.0788 87.9692 73.2904 92.3243 73.6354 96.7002L77.623 96.3857ZM77.3273 70.8574C77.6094 66.531 78.0799 62.3092 78.7583 58.2271L74.8124 57.5713C74.1101 61.7975 73.6256 66.1521 73.3358 70.5971L77.3273 70.8574ZM81.5967 45.8994C82.8473 41.7675 84.373 37.8564 86.1977 34.2095L82.6205 32.4196C80.6833 36.2913 79.077 40.4165 77.7682 44.7406L81.5967 45.8994ZM92.9035 23.7187C95.5063 20.5107 98.4715 17.6398 101.832 15.156L99.4545 11.9393C95.8106 14.6326 92.6029 17.7405 89.7973 21.1985L92.9035 23.7187ZM112.648 9.11001C116.291 7.62345 120.277 6.46554 124.633 5.67878L123.922 1.74247C119.309 2.5756 115.053 3.80819 111.137 5.40656L112.648 9.11001ZM137.116 4.49109C141.095 4.41633 145.319 4.59735 149.802 5.05543L150.208 1.07616C145.58 0.603118 141.194 0.413763 137.041 0.4918L137.116 4.49109ZM162.335 6.94113C166.312 7.7174 170.46 8.68445 174.786 9.85284L175.829 5.9912C171.418 4.7999 167.178 3.8109 163.101 3.01522L162.335 6.94113ZM187.07 13.5598C190.968 14.8532 194.994 16.2942 199.151 17.8888L200.583 14.1543C196.373 12.5389 192.289 11.0771 188.33 9.76331L187.07 13.5598ZM211.028 22.7151C214.826 24.3409 218.724 26.0852 222.723 27.9516L224.415 24.3269C220.378 22.4432 216.442 20.6814 212.602 19.0379L211.028 22.7151ZM234.267 33.5399C236.196 34.5059 238.147 35.4985 240.12 36.518L241.956 32.9645C239.968 31.9374 238.003 30.9371 236.058 29.9633L234.267 33.5399Z" fill="white" fill-opacity="0.75"/>
</svg>
