<svg width="144" height="151" viewBox="0 0 144 151" fill="none" xmlns="http://www.w3.org/2000/svg">
<path d="M38.6546 16.431C42.436 0.578773 61.979 -5.04631 72.6324 6.65112L77.1341 11.594C82.105 17.052 89.7435 19.1269 96.9236 16.9694L104.08 14.8191C118.795 10.3973 132.221 23.6728 128.292 38.7608L125.446 49.6918C123.675 56.4896 125.456 63.6276 130.153 68.5639L137.706 76.5016C148.132 87.4579 142.684 106.166 127.882 110.24L120.683 112.222C113.461 114.21 107.812 120.109 106.047 127.506L104.449 134.204C100.668 150.056 81.1249 155.682 70.4715 143.984L65.9698 139.041C60.9989 133.583 53.3604 131.508 46.1802 133.666L39.0241 135.816C24.3085 140.238 10.8828 126.962 14.8118 111.874L17.6583 100.943C19.4284 94.1456 17.6479 87.0077 12.9508 82.0713L5.39774 74.1337C-5.02769 63.1774 0.419971 44.4695 15.2223 40.3951L22.4205 38.4137C29.6429 36.4257 35.2923 30.5262 37.0567 23.1295L38.6546 16.431Z" fill="white"/>
</svg>
