<svg version="1.2" xmlns="http://www.w3.org/2000/svg" viewBox="0 0 991 1107" width="991" height="1107"><style>.a{fill:#e11e1e}</style><path class="a" d="m11.9 274.9l38.8-105.8c18.6-51 58.5-91.3 110.7-106.5 160.2-46.5 516.7-125.7 697.5 26.1 218.2 183.3 116 649.3 46.2 884-20.6 69.5-104 92.1-160.1 46-43-35.4-106.1-31.5-144.5 8.9l-30.1 31.7c-43.3 45.7-110.3 60.1-168.6 36.4l-96.7-39.2c-26.7-10.9-55.9-14.5-84.5-10.5-109 15.2-201.9-78.9-185.2-187.7l36.8-241.2c5.2-33.6 1-67.9-12.1-99.3l-45.2-108c-17.9-43-19-91.1-3-134.9z"/></svg>