<svg width="233" height="117" viewBox="0 0 233 117" fill="none" xmlns="http://www.w3.org/2000/svg">
<path d="M228.734 47.4974C229.554 47.6138 230.313 47.0432 230.429 46.223L232.325 32.8568C232.442 32.0366 231.871 31.2773 231.051 31.161C230.231 31.0446 229.472 31.6152 229.355 32.4354L227.67 44.3165L215.789 42.6311C214.969 42.5147 214.209 43.0853 214.093 43.9055C213.977 44.7257 214.547 45.485 215.367 45.6013L228.734 47.4974ZM125.052 109.694L123.561 109.852L125.052 109.694ZM97.5891 36.1428L98.8403 36.9702L97.5891 36.1428ZM93.6637 53.612L92.6858 54.7494L93.6637 53.612ZM120.43 92.8595L119.027 93.3897L120.43 92.8595ZM4.13147 112.057C3.93732 110.151 3.83761 108.174 3.83107 106.142L0.831087 106.152C0.837914 108.275 0.942118 110.351 1.14692 112.361L4.13147 112.057ZM4.76833 94.2472C5.36821 90.3851 6.2518 86.4609 7.40711 82.5715L4.53129 81.7172C3.33838 85.7333 2.42484 89.7889 1.80388 93.7868L4.76833 94.2472ZM11.5658 71.3488C13.2124 67.6837 15.1075 64.1499 17.2374 60.8376L14.7141 59.215C12.4977 62.6618 10.5326 66.3281 8.82927 70.1193L11.5658 71.3488ZM24.5187 51.4414C27.2791 48.5054 30.283 45.9305 33.5132 43.8179L31.8713 41.3072C28.4201 43.5641 25.2367 46.298 22.333 49.3865L24.5187 51.4414ZM44.105 38.8975C47.7395 37.8454 51.5933 37.3401 55.6579 37.4869L55.7662 34.4889C51.3796 34.3304 47.2079 34.8762 43.2709 36.0157L44.105 38.8975ZM67.2167 39.5699C70.6944 40.6783 74.3058 42.2486 78.0446 44.338L79.5081 41.7192C75.6101 39.5408 71.8143 37.8865 68.1277 36.7116L67.2167 39.5699ZM88.0066 50.9453C89.5483 52.1261 91.1082 53.3931 92.6858 54.7494L94.6416 52.4746C93.0231 51.083 91.4193 49.7803 89.8307 48.5636L88.0066 50.9453ZM92.6858 54.7494C94.1769 56.0314 95.6195 57.3657 97.0135 58.7481L99.126 56.6179C97.6825 55.1864 96.1876 53.8038 94.6416 52.4746L92.6858 54.7494ZM104.802 67.5997C107.198 70.7168 109.397 73.9926 111.396 77.3932L113.982 75.8726C111.922 72.3693 109.655 68.9904 107.18 65.7714L104.802 67.5997ZM116.785 87.9144C117.583 89.7185 118.33 91.545 119.027 93.3897L121.834 92.3294C121.117 90.4338 120.349 88.5562 119.529 86.7011L116.785 87.9144ZM119.027 93.3897C119.549 94.7716 120.039 96.1314 120.491 97.4592L123.331 96.4934C122.868 95.1307 122.366 93.7394 121.834 92.3294L119.027 93.3897ZM122.86 105.706C123.19 107.202 123.427 108.59 123.561 109.852L126.544 109.535C126.396 108.138 126.137 106.637 125.789 105.06L122.86 105.706ZM123.561 109.852C123.856 112.63 123.82 114.637 123.568 116.001L126.518 116.546C126.845 114.776 126.853 112.444 126.544 109.535L123.561 109.852ZM116.722 113.853C114.43 111.295 111.881 107.723 109.34 103.442L106.761 104.973C109.366 109.364 112.027 113.109 114.488 115.856L116.722 113.853ZM103.404 91.9897C101.672 88.1609 100.071 84.1091 98.7062 79.9697L95.8571 80.9092C97.2577 85.1564 98.8978 89.3072 100.67 93.226L103.404 91.9897ZM95.4424 67.5261C94.6159 63.1767 94.1608 58.8968 94.1854 54.834L91.1854 54.8158C91.1594 59.1096 91.64 63.5863 92.4952 68.0861L95.4424 67.5261ZM96.1272 42.4848C96.8257 40.5047 97.7238 38.6586 98.8403 36.9702L96.3379 35.3155C95.0739 37.227 94.0706 39.2969 93.2981 41.4868L96.1272 42.4848ZM98.8403 36.9702C100.044 35.1501 101.31 33.385 102.634 31.6799L100.264 29.8398C98.8931 31.6056 97.583 33.4325 96.3379 35.3155L98.8403 36.9702ZM111.386 22.0821C114.582 19.102 117.995 16.422 121.591 14.0851L119.956 11.5697C116.209 14.005 112.659 16.7933 109.34 19.8878L111.386 22.0821ZM133.05 8.08216C137.037 6.46186 141.179 5.23814 145.442 4.45539L144.901 1.50472C140.43 2.32554 136.092 3.60795 131.921 5.30287L133.05 8.08216ZM158.307 3.46667C162.501 3.58402 166.779 4.12821 171.112 5.13856L171.794 2.21692C167.266 1.16132 162.789 0.590875 158.391 0.467845L158.307 3.46667ZM183.4 9.23073C187.206 10.8838 191.038 12.912 194.876 15.3417L196.481 12.8068C192.517 10.298 188.549 8.19635 184.595 6.47903L183.4 9.23073ZM205.411 23.0351C208.614 25.6957 211.811 28.6532 214.99 31.9229L217.141 29.8316C213.891 26.4896 210.617 23.4593 207.327 20.7273L205.411 23.0351ZM223.694 41.7312C225.05 43.3974 226.401 45.1244 227.745 46.9135L230.143 45.1111C228.776 43.292 227.402 41.5345 226.021 39.8377L223.694 41.7312Z" fill="white" fill-opacity="0.6"/>
</svg>
